M48
METRIC,LZ,000.000
;FILE_FORMAT=3:3
;TYPE=PLATED
;Layer: PTH_Through_Via
;EasyEDA v6.5.23, 2023-04-09 10:26:07
;330b7c5f45e04ff093bb28af9a5d1234,10
;Gerber Generator version 0.2
;Holesize 1 = 0.305 mm
T01C0.305
;Holesize 2 = 0.306 mm
T02C0.306
%
G05
G90
T01
X051054Y045339
X032512Y013970
X032385Y027051
X038100Y018923
X049784Y015748
X044196Y009144
X064262Y016002
X058547Y008636
X054610Y008636
X053086Y011684
X035433Y017399
X026162Y018542
X022987Y021463
X031496Y012065
X021209Y012319
X010795Y025273
X004445Y025654
X006858Y049149
X019812Y028702
X012319Y035306
X003937Y018542
X040513Y009144
X038100Y007493
T02
X047287Y010148
X035560Y008509
X069088Y009906
X044450Y037973
X008636Y003429
X006223Y015367
X002413Y018923
X010541Y052705
X008128Y040005
X012192Y027813
X015113Y054229
X006350Y017399
X044450Y028575
X029845Y016764
X007493Y022352
X025146Y025654
X009525Y026416
X022479Y019177
X039116Y040894
X063456Y036802
X051562Y036068
X020066Y045593
M30
