M48
METRIC,LZ,000.000
;FILE_FORMAT=3:3
;TYPE=PLATED
;Layer: PTH_Through
;EasyEDA v6.5.23, 2023-04-09 10:26:07
;330b7c5f45e04ff093bb28af9a5d1234,10
;Gerber Generator version 0.2
;Holesize 1 = 0.800 mm
T01C0.800
;Holesize 2 = 0.901 mm
T02C0.901
;Holesize 3 = 0.915 mm
T03C0.915
;Holesize 4 = 1.000 mm
T04C1.000
;Holesize 5 = 1.016 mm
T05C1.016
;Holesize 6 = 1.200 mm
T06C1.200
;Holesize 7 = 3.961 mm
T07C3.961
%
G05
G90
T01
X061849Y014562G85X061849Y012362
T02
X030175Y010046G85X030130Y010046
X030175Y007506G85X030130Y007506
X027635Y010046G85X027590Y010046
X027635Y007506G85X027590Y007506
X025095Y010046G85X025050Y010046
X025095Y007506G85X025050Y007506
X022555Y010046G85X022510Y010046
X022555Y007506G85X022510Y007506
X020015Y010046G85X019970Y010046
X020015Y007506G85X019970Y007506
X017475Y010046G85X017430Y010046
X017475Y007506G85X017430Y007506
X014935Y010046G85X014890Y010046
X014935Y007506G85X014890Y007506
X012395Y010046G85X012350Y010046
X012395Y007506G85X012350Y007506
X059902Y018263G85X057802Y018263
X055854Y014512G85X055854Y012412
X062143Y024257
X064643Y024257
X067143Y024257
T03
X056896Y005842
X061976Y005842
T04
X003429Y010922
X003429Y013462
X051943Y031115
X049403Y031115
X046863Y031115
X044323Y031115
X041783Y031115
X039243Y031115
X036703Y031115
X034163Y031115
X031623Y031115
X029083Y031115
X026543Y031115
X024003Y031115
X021463Y031115
X018923Y031115
X016383Y031115
X049403Y056515
X046863Y056515
X044323Y056515
X041783Y056515
X039243Y056515
X036703Y056515
X034163Y056515
X031623Y056515
X029083Y056515
X026543Y056515
X024003Y056515
X021463Y056515
X018923Y056515
X016383Y056515
X051943Y056515
X013843Y031115
X011303Y031115
X054483Y031115
X054483Y056515
X013843Y056515
X011303Y056515
X008763Y031115
X008763Y056515
X060063Y030616G85X060113Y030616
X063464Y030616G85X063513Y030616
X061764Y028616G85X061813Y028616
X065163Y028616G85X065213Y028616
X066863Y030616G85X066913Y030616
T05
X062741Y056911G85X062741Y056917
X055880Y024128G85X055880Y024133
X055880Y026668G85X055880Y026673
X059538Y056902G85X059538Y056907
T06
X051407Y006858
X047907Y006858
X044380Y006859
X040880Y006859
T07
X063437Y048641
M30
