G04 Layer: TopLayer*
G04 EasyEDA v6.5.23, 2023-04-09 10:26:07*
G04 330b7c5f45e04ff093bb28af9a5d1234,10*
G04 Gerber Generator version 0.2*
G04 Scale: 100 percent, Rotated: No, Reflected: No *
G04 Dimensions in millimeters *
G04 leading zeros omitted , absolute positions ,4 integer and 5 decimal *
%FSLAX45Y45*%
%MOMM*%

%AMMACRO1*4,1,9,-4.0008,-5.7819,-4.0008,0.8221,-4.0008,0.8221,-5.7788,0.8221,-5.7788,5.7819,5.7788,5.7819,5.7788,0.8221,3.9997,0.8221,3.9997,-5.7819,-4.0008,-5.7819,0*%
%AMMACRO2*4,1,4,-1,0.75,1,0.75,1,-0.75,-1,-0.75,-1,0.75,0*%
%ADD10C,0.6000*%
%ADD11C,0.8000*%
%ADD12C,1.0000*%
%ADD13C,0.7000*%
%ADD14R,1.1000X1.1000*%
%ADD15R,1.6002X2.0000*%
%ADD16R,1.5000X1.5000*%
%ADD17R,1.8000X1.6000*%
%ADD18R,3.0000X7.0000*%
%ADD19R,5.0000X2.3000*%
%ADD20R,4.0000X2.0000*%
%ADD21R,1.1500X3.2000*%
%ADD22MACRO1*%
%ADD23R,2.2900X2.7200*%
%ADD24R,3.0000X2.2000*%
%ADD25C,1.8000*%
%ADD26R,2.2000X2.2000*%
%ADD27C,2.2000*%
%ADD28C,2.0000*%
%ADD29C,1.7000*%
%ADD30R,1.7000X1.7000*%
%ADD31O,4.499991X2.5999948*%
%ADD32O,2.5999948X4.499991*%
%ADD33O,1.5999968X2.2999954*%
%ADD34MACRO2*%
%ADD35O,2.0999958X1.6500094*%
%ADD36C,5.0000*%
%ADD37C,0.6100*%
%ADD38C,0.6500*%
%ADD39C,0.0106*%

%LPD*%
D10*
X3556000Y850900D02*
G01*
X3657600Y749300D01*
X3810000Y749300D01*
D11*
X3772656Y1397000D02*
G01*
X3772656Y1001196D01*
X4087977Y685876D01*
D10*
X952500Y2641600D02*
G01*
X2184400Y2641600D01*
X2400300Y2857500D01*
X2400300Y3111500D01*
X426211Y2146300D02*
G01*
X241300Y2146300D01*
X177800Y2209800D01*
X177800Y3797300D01*
X1257300Y4876800D01*
X1523745Y4876800D01*
X4051300Y914400D02*
G01*
X4419600Y914400D01*
D11*
X4978400Y1574800D02*
G01*
X5232400Y1574800D01*
X5486400Y1828800D01*
X5486400Y1905000D01*
X5626100Y2044700D01*
X5788657Y2044700D01*
X6000998Y2257046D01*
X6004308Y2575557D01*
X6089401Y2663700D01*
X6434373Y2663700D01*
X6518907Y2748234D01*
X6518907Y2861561D01*
D10*
X2507234Y751842D02*
G01*
X2507234Y589534D01*
X2476500Y558800D01*
X1041400Y558800D01*
X800100Y800100D01*
X800100Y1574800D01*
X635000Y1739900D01*
X2761234Y750570D02*
G01*
X2768600Y743204D01*
X2768600Y508000D01*
X2717800Y457200D01*
X914400Y457200D01*
X342900Y1028700D01*
X342900Y1092200D01*
X1326281Y1850796D02*
G01*
X1322877Y1854200D01*
X393700Y1854200D01*
D11*
X1326286Y2146300D02*
G01*
X1326286Y1707286D01*
X939800Y1320800D01*
X939800Y863600D01*
X1052835Y750570D01*
X1237234Y750570D01*
X5933363Y2861614D02*
G01*
X6178854Y2861614D01*
D10*
X4728718Y1014729D02*
G01*
X6412229Y1014729D01*
X6934200Y1536700D01*
X6934200Y2205736D01*
X6714236Y2425700D01*
X4429506Y4519676D02*
G01*
X5129022Y4517644D01*
X4102100Y4025900D02*
G01*
X4109389Y4033189D01*
X4109389Y4519599D01*
X5588025Y2667000D02*
G01*
X5613400Y2692374D01*
X5613400Y3492500D01*
X5080228Y4025671D01*
X4453254Y4025671D01*
D12*
X6684009Y3443452D02*
G01*
X6684009Y3066465D01*
X6688861Y3061614D01*
D11*
X6173470Y3673602D02*
G01*
X6125972Y3721100D01*
X5892800Y3721100D01*
X5791200Y3619500D01*
X5791200Y2921000D01*
X5850636Y2861563D01*
X5933440Y2861563D01*
X6173444Y3443452D02*
G01*
X6173444Y3673525D01*
X3810000Y1892300D02*
G01*
X3810000Y2280914D01*
X3815085Y2286000D01*
X1991865Y2146300D02*
G01*
X1663700Y2146300D01*
X1326286Y2146300D01*
X1991916Y2146300D02*
G01*
X2298700Y2146300D01*
D10*
X1079500Y2527300D02*
G01*
X482600Y2527300D01*
X444500Y2565400D01*
X1491234Y1004570D02*
G01*
X1491234Y1326134D01*
X1930400Y1765300D01*
X2273300Y1765300D01*
X2654300Y2146300D01*
X2654300Y3111500D01*
X1999234Y1004570D02*
G01*
X1993900Y1009904D01*
X1993900Y1270000D01*
X2120900Y1397000D01*
X3251200Y1397000D01*
X3149600Y1206500D02*
G01*
X3124200Y1231900D01*
X2120900Y1231900D01*
X5308600Y1168400D02*
G01*
X4762500Y1168400D01*
X4658359Y1272539D01*
X4658359Y1384300D01*
X5854700Y863600D02*
G01*
X5461000Y863600D01*
D12*
X5140708Y685800D02*
G01*
X5575325Y685800D01*
X5689625Y571500D01*
D10*
X863600Y342900D02*
G01*
X2997205Y342900D01*
X3251200Y596894D01*
X3251200Y901700D01*
X3148284Y1004620D01*
X3015234Y1004620D01*
X1673910Y4876800D02*
G01*
X1523847Y4876800D01*
X1991918Y2146300D02*
G01*
X1831898Y2146300D01*
X5448300Y5651500D02*
G01*
X5603366Y5651500D01*
X5953785Y5690438D02*
G01*
X5642305Y5690438D01*
X5603366Y5651500D01*
D13*
X2728010Y4876800D02*
G01*
X2715884Y4888925D01*
X2715884Y5127081D01*
X1673910Y4876800D02*
G01*
X1669399Y4881311D01*
X1669399Y5128005D01*
D10*
X2006600Y4559300D02*
G01*
X2006600Y4864100D01*
X1993900Y4876800D01*
X2247900Y1917700D02*
G01*
X1828800Y1917700D01*
X1237234Y1326134D01*
X1237234Y1004570D01*
X1219200Y2781300D02*
G01*
X711200Y2781300D01*
X698500Y2768600D01*
X533400Y2768600D01*
X431800Y2870200D01*
X3416300Y5651500D02*
G01*
X3416300Y5448300D01*
X3238500Y5270500D01*
X1054100Y5270500D01*
X2400325Y5651500D02*
G01*
X2400325Y5524525D01*
X2298700Y5422900D01*
X1511300Y5422900D01*
D12*
X6003290Y3443478D02*
G01*
X6008877Y3061715D01*
X6348856Y3061614D02*
G01*
X6343650Y3066821D01*
X6343650Y3443452D01*
D11*
X6513829Y3443452D02*
G01*
X6513829Y3673525D01*
X1823974Y5128005D02*
G01*
X4521454Y5125212D01*
X5756402Y3890263D01*
X6411468Y3890263D01*
X6513829Y3787902D01*
X6513829Y3673602D01*
X876325Y5651500D02*
G01*
X876300Y5257800D01*
X1006093Y5128005D01*
X1823974Y5128005D01*
X6513829Y3787902D02*
G01*
X6765797Y3787902D01*
X6912356Y3641344D01*
X6912356Y2931413D01*
X6842506Y2861563D01*
X6518909Y2861563D01*
X6343650Y3443455D02*
G01*
X6345631Y3445436D01*
X6345631Y3680231D01*
X5156200Y3606800D02*
G01*
X4241800Y3606800D01*
X3924300Y3289300D01*
X3924300Y3111500D01*
X3911600Y4089400D02*
G01*
X3906895Y4094104D01*
X3056557Y4094104D01*
D13*
X3048000Y4876800D02*
G01*
X3056557Y4868242D01*
X3056557Y4334842D01*
D11*
X5854700Y2858262D02*
G01*
X5854700Y2324100D01*
X5715000Y2184400D01*
X5176520Y2184400D01*
X5074920Y2286000D01*
D10*
X3241802Y2706878D02*
G01*
X3242309Y2761487D01*
X3339845Y2857500D01*
X4445000Y2857500D01*
D11*
X3772661Y1397000D02*
G01*
X3619500Y1397000D01*
X3429000Y1587500D01*
X3352800Y1587500D01*
X3086100Y1854200D01*
X2616200Y1854200D01*
D13*
X4445000Y3797300D02*
G01*
X4432300Y3784600D01*
X2730500Y3784600D01*
X2736542Y3790642D01*
X2736542Y4094104D01*
X5689600Y571500D02*
G01*
X5803900Y571500D01*
X6083300Y850900D01*
X6769100Y850900D01*
X6908800Y990600D01*
D10*
X1745234Y1004570D02*
G01*
X1745234Y1313434D01*
X2032000Y1600200D01*
X2908808Y1600200D01*
X2984500Y1676400D01*
X4978400Y1384300D02*
G01*
X4978400Y1574800D01*
X749300Y2235200D02*
G01*
X889000Y2374900D01*
X2324100Y2374900D01*
X2514600Y2565400D01*
D11*
X5445559Y3114266D02*
G01*
X5445559Y3330140D01*
X5168900Y3606800D01*
X5156200Y3606800D01*
D10*
X6367018Y2006854D02*
G01*
X6367272Y1849628D01*
X6426200Y1790700D01*
X6426200Y1600200D01*
X6184900Y1346200D02*
G01*
X6286500Y1447800D01*
X6540500Y1447800D01*
X6718300Y1625600D01*
X6718300Y2006600D01*
X3011934Y2146300D02*
G01*
X3136900Y2146300D01*
X3543300Y1739900D01*
X241300Y1892300D02*
G01*
X241300Y1765300D01*
X469900Y1536700D01*
X622300Y1536700D01*
D11*
X4177538Y1397000D02*
G01*
X4177538Y1548637D01*
X4394200Y1765300D01*
X4940300Y1765300D01*
X5074920Y1899920D01*
X5074920Y2286000D01*
D10*
X3162300Y5651500D02*
G01*
X3162300Y5753100D01*
X3098800Y5816600D01*
X685800Y5816600D01*
X685800Y4914900D01*
X1981200Y2870200D02*
G01*
X1943100Y2895600D01*
X609600Y2895600D01*
X609600Y3365500D01*
X774700Y3530600D01*
X1231900Y3530600D01*
X431800Y2870200D02*
G01*
X431800Y3619500D01*
X812800Y4000500D01*
X2006600Y4559300D02*
G01*
X1879602Y4432302D01*
X1747512Y4432302D01*
D13*
X1986279Y3924300D02*
G01*
X1986279Y3766820D01*
X2133600Y3619500D01*
X2565400Y3619500D01*
X2730500Y3784600D01*
D10*
X1422400Y3848100D02*
G01*
X1427497Y3853197D01*
X1427497Y4432302D01*
X2400300Y3111500D02*
G01*
X2400300Y3302000D01*
X2273300Y3429000D01*
X1803400Y3429000D01*
X1574800Y3657600D01*
X1574800Y3848100D01*
D11*
X2006600Y4559300D02*
G01*
X2095500Y4470400D01*
X2921000Y4470400D01*
X3056557Y4334842D01*
X3056557Y4094106D01*
D10*
X2306320Y3924300D02*
G01*
X2306320Y4470400D01*
X2298700Y4470400D01*
D11*
X4790693Y685800D02*
G01*
X4790693Y759205D01*
X4495800Y1054100D01*
X3772661Y1054100D01*
D14*
G01*
X1574800Y3848100D03*
G01*
X1422400Y3848100D03*
G01*
X1270000Y3848100D03*
D15*
G01*
X1427505Y4432300D03*
G01*
X1747494Y4432300D03*
D16*
G01*
X4102100Y4025900D03*
G01*
X4453254Y4025671D03*
D17*
G01*
X4429404Y4519599D03*
G01*
X4109389Y4519599D03*
D18*
G01*
X3815003Y2286000D03*
G01*
X5074996Y2286000D03*
D19*
G01*
X1991918Y2146300D03*
G01*
X3011906Y2146300D03*
D20*
G01*
X426313Y2146300D03*
G01*
X1326286Y2146300D03*
D21*
G01*
X6684009Y3443452D03*
G01*
X6513829Y3443452D03*
G01*
X6173470Y3443452D03*
G01*
X6343650Y3443452D03*
G01*
X6003290Y3443452D03*
D22*
G01*
X6343705Y4616805D03*
D23*
G01*
X4177614Y1397000D03*
G01*
X3772611Y1397000D03*
D15*
G01*
X3056534Y4094098D03*
G01*
X2736545Y4094098D03*
G01*
X2728010Y4876800D03*
G01*
X3048000Y4876800D03*
G01*
X1673910Y4876800D03*
G01*
X1993900Y4876800D03*
G01*
X1986305Y3924300D03*
G01*
X2306294Y3924300D03*
D16*
G01*
X6367145Y2006828D03*
G01*
X6718300Y2006600D03*
D17*
G01*
X4978400Y1384300D03*
G01*
X4658385Y1384300D03*
D24*
G01*
X5689600Y584200D03*
G01*
X6197600Y584200D03*
D25*
G01*
X342900Y1092200D03*
G01*
X342900Y1346200D03*
D26*
G01*
X5140680Y685800D03*
D27*
G01*
X4790719Y685800D03*
D26*
G01*
X4437938Y685871D03*
D27*
G01*
X4087977Y685871D03*
D28*
G01*
X6274104Y5691403D03*
G01*
X3015234Y1004620D03*
G01*
X3015234Y750620D03*
G01*
X2761234Y1004620D03*
G01*
X2761259Y750646D03*
G01*
X2507234Y1004620D03*
G01*
X2507234Y750620D03*
G01*
X2253234Y1004620D03*
G01*
X2253259Y750646D03*
G01*
X1999234Y1004620D03*
G01*
X1999234Y750620D03*
G01*
X1745234Y1004620D03*
G01*
X1745234Y750620D03*
G01*
X1491234Y1004620D03*
G01*
X1491234Y750620D03*
G01*
X1237234Y1004620D03*
G01*
X1237259Y750646D03*
D29*
G01*
X5194325Y3111500D03*
G01*
X4940325Y3111500D03*
G01*
X4686325Y3111500D03*
G01*
X4432325Y3111500D03*
G01*
X4178325Y3111500D03*
G01*
X3924325Y3111500D03*
G01*
X3670325Y3111500D03*
G01*
X3416325Y3111500D03*
G01*
X3162325Y3111500D03*
G01*
X2908325Y3111500D03*
G01*
X2654325Y3111500D03*
G01*
X2400325Y3111500D03*
G01*
X2146325Y3111500D03*
G01*
X1892325Y3111500D03*
G01*
X1638325Y3111500D03*
G01*
X4940325Y5651500D03*
G01*
X4686325Y5651500D03*
G01*
X4432325Y5651500D03*
G01*
X4178325Y5651500D03*
G01*
X3924325Y5651500D03*
G01*
X3670325Y5651500D03*
G01*
X3416325Y5651500D03*
G01*
X3162325Y5651500D03*
G01*
X2908325Y5651500D03*
G01*
X2654325Y5651500D03*
G01*
X2400325Y5651500D03*
G01*
X2146325Y5651500D03*
G01*
X1892325Y5651500D03*
G01*
X1638325Y5651500D03*
G01*
X5194325Y5651500D03*
G01*
X1384325Y3111500D03*
G01*
X1130325Y3111500D03*
G01*
X5448325Y3111500D03*
D30*
G01*
X5448300Y5651500D03*
D29*
G01*
X1384325Y5651500D03*
G01*
X1130325Y5651500D03*
G01*
X876325Y3111500D03*
D30*
G01*
X876325Y5651500D03*
D31*
G01*
X5885179Y1826260D03*
D32*
G01*
X6184900Y1346200D03*
G01*
X5585459Y1346200D03*
D33*
G01*
X6214262Y2425674D03*
G01*
X6464274Y2425674D03*
G01*
X6714261Y2425674D03*
D28*
G01*
X5588050Y2413000D03*
G01*
X5588025Y2667000D03*
G01*
X5953785Y5690438D03*
D34*
G01*
X6008839Y3061622D03*
D35*
G01*
X6348856Y3061614D03*
G01*
X6178854Y2861614D03*
G01*
X6518859Y2861614D03*
G01*
X6688861Y3061614D03*
D36*
G01*
X6343700Y4864100D03*
D37*
G01*
X4728667Y1014755D03*
G01*
X3556000Y850900D03*
G01*
X6908800Y990600D03*
G01*
X4445000Y3797300D03*
G01*
X863600Y342900D03*
G01*
X622300Y1536700D03*
G01*
X241300Y1892300D03*
G01*
X1054100Y5270500D03*
G01*
X812800Y4000500D03*
G01*
X1219200Y2781300D03*
G01*
X1511300Y5422900D03*
G01*
X635000Y1739900D03*
G01*
X4445000Y2857500D03*
G01*
X2984500Y1676400D03*
G01*
X749300Y2235200D03*
G01*
X2514600Y2565400D03*
G01*
X952500Y2641600D03*
G01*
X2247900Y1917700D03*
G01*
X3911600Y4089400D03*
G01*
X6345631Y3680231D03*
G01*
X5156200Y3606800D03*
G01*
X2006600Y4559300D03*
D38*
G01*
X5105400Y4533900D03*
G01*
X3251200Y1397000D03*
G01*
X3238500Y2705100D03*
G01*
X3810000Y1892300D03*
G01*
X4978400Y1574800D03*
G01*
X4419600Y914400D03*
G01*
X6426200Y1600200D03*
G01*
X5854700Y863600D03*
G01*
X5461000Y863600D03*
G01*
X5308600Y1168400D03*
G01*
X3543300Y1739900D03*
G01*
X2616200Y1854200D03*
G01*
X2298700Y2146300D03*
G01*
X3149600Y1206500D03*
G01*
X2120900Y1231900D03*
G01*
X1079500Y2527300D03*
G01*
X444500Y2565400D03*
G01*
X685800Y4914900D03*
G01*
X1981200Y2870200D03*
G01*
X1231900Y3530600D03*
G01*
X393700Y1854200D03*
G01*
X4051300Y914400D03*
G01*
X3810000Y749300D03*
M02*
