G04 Layer: BottomLayer*
G04 EasyEDA v6.5.23, 2023-04-09 10:26:07*
G04 330b7c5f45e04ff093bb28af9a5d1234,10*
G04 Gerber Generator version 0.2*
G04 Scale: 100 percent, Rotated: No, Reflected: No *
G04 Dimensions in millimeters *
G04 leading zeros omitted , absolute positions ,4 integer and 5 decimal *
%FSLAX45Y45*%
%MOMM*%

%AMMACRO1*4,1,9,-4.0008,-5.7819,-4.0008,0.8221,-4.0008,0.8221,-5.7788,0.8221,-5.7788,5.7819,5.7788,5.7819,5.7788,0.8221,3.9997,0.8221,3.9997,-5.7819,-4.0008,-5.7819,0*%
%AMMACRO2*4,1,4,-1,0.75,1,0.75,1,-0.75,-1,-0.75,-1,0.75,0*%
%ADD10C,0.6000*%
%ADD11C,0.8000*%
%ADD12C,1.0000*%
%ADD13C,0.7000*%
%ADD14MACRO1*%
%ADD15R,3.0000X2.2000*%
%ADD16C,1.8000*%
%ADD17R,2.2000X2.2000*%
%ADD18C,2.2000*%
%ADD19C,2.0000*%
%ADD20C,1.7000*%
%ADD21R,1.7000X1.7000*%
%ADD22O,4.499991X2.5999948*%
%ADD23O,2.5999948X4.499991*%
%ADD24O,1.5999968X2.2999954*%
%ADD25MACRO2*%
%ADD26O,2.0999958X1.6500094*%
%ADD27C,5.0000*%
%ADD28C,0.6100*%
%ADD29C,0.6500*%
%ADD30C,0.0179*%

%LPD*%
D10*
X3810000Y749300D02*
G01*
X3822700Y749300D01*
X4051300Y914400D01*
X4419600Y914400D02*
G01*
X4546600Y914400D01*
X4647184Y1014984D01*
X4728715Y1014729D01*
D11*
X3810000Y1892300D02*
G01*
X3810000Y1879600D01*
X3987800Y1701800D01*
X3987800Y1155700D01*
X4437938Y705561D01*
X4437938Y685876D01*
D10*
X2253234Y1004570D02*
G01*
X2253234Y1505965D01*
X673100Y3086100D01*
X673100Y4152900D01*
X1892300Y5372100D01*
X1892300Y5651500D01*
X342900Y1346200D02*
G01*
X342900Y1803400D01*
X393700Y1854200D01*
X622300Y1536700D02*
G01*
X622300Y584200D01*
X863600Y342900D01*
D12*
X6714236Y2425700D02*
G01*
X6714236Y2544063D01*
X6591300Y2667000D01*
X5994400Y2667000D01*
X5930900Y2730500D01*
X5930900Y2983737D01*
X6008877Y3061715D01*
D10*
X6688830Y3061715D02*
G01*
X6688830Y3165853D01*
X6562341Y3292350D01*
X5898641Y3292350D01*
X5588025Y2981733D01*
X5588025Y2667000D01*
X5448300Y3111500D02*
G01*
X5372100Y2984500D01*
X5372100Y2527300D01*
X5486400Y2413000D01*
X5588000Y2413000D01*
X2761234Y1004620D02*
G01*
X2761234Y2090165D01*
X1981200Y2870200D01*
X3670300Y3111500D02*
G01*
X3670300Y596900D01*
X3441700Y368300D01*
X2171700Y368300D01*
X1999234Y540765D01*
X1999234Y750570D01*
X1491234Y751839D02*
G01*
X1491234Y614679D01*
X1397000Y520700D01*
X1143000Y520700D01*
X876300Y787400D01*
X876300Y2565400D01*
X952500Y2641600D01*
D11*
X2616200Y1854200D02*
G01*
X2324100Y2146300D01*
X2298700Y2146300D01*
X5588050Y2413000D02*
G01*
X5194300Y2019249D01*
X5194300Y1257300D01*
X4790714Y853714D01*
X4790714Y685800D01*
D10*
X444500Y2565400D02*
G01*
X444500Y4673600D01*
X685800Y4914900D01*
X2120900Y1231900D02*
G01*
X1079500Y2273300D01*
X1079500Y2527300D01*
X1638300Y3111500D02*
G01*
X1638300Y2527300D01*
X2247900Y1917700D01*
X2253234Y750570D02*
G01*
X2253234Y591565D01*
X2324100Y520700D01*
X3263900Y520700D01*
X3416300Y673100D01*
X3416300Y3111500D01*
X3543300Y1739900D02*
G01*
X3543300Y863600D01*
X3556000Y850900D01*
X3162325Y3111500D02*
G01*
X3162325Y2908325D01*
X2984500Y2730500D01*
X2984500Y1676400D01*
X6426200Y1600200D02*
G01*
X6426200Y1092200D01*
X6197600Y863600D01*
X5854700Y863600D01*
X5461000Y863600D02*
G01*
X5308600Y1016000D01*
X5308600Y1168400D01*
D11*
X6184900Y1346200D02*
G01*
X6235700Y1346200D01*
X6235700Y1950344D01*
X5773044Y2413000D01*
X5588050Y2413000D01*
D10*
X3251200Y1397000D02*
G01*
X3238500Y1409700D01*
X3238500Y2705100D01*
X2908325Y3111500D02*
G01*
X2882727Y3111500D01*
X2514600Y2743372D01*
X2514600Y2565400D01*
X1219200Y2781300D02*
G01*
X1219200Y2755900D01*
X2507234Y1467865D01*
X2507234Y1004620D01*
D12*
X5585457Y1346200D02*
G01*
X5689625Y1242032D01*
X5689625Y571500D01*
D10*
X1745234Y750570D02*
G01*
X1745234Y564134D01*
X1574800Y393700D01*
X1104900Y393700D01*
X749300Y749300D01*
X749300Y2235200D01*
D13*
X6274054Y5691378D02*
G01*
X6273800Y5486400D01*
X6184900Y5397500D01*
X5702300Y5397500D01*
X5105400Y4800600D01*
X5105400Y4533900D01*
D11*
X3924325Y3111500D02*
G01*
X3911600Y3124225D01*
X3911600Y4089400D01*
X2146325Y5651500D02*
G01*
X2146325Y4699025D01*
X2006600Y4559300D01*
D10*
X5194300Y3111500D02*
G01*
X5194300Y2933700D01*
X5118100Y2857500D01*
X4445000Y2857500D01*
D13*
X6908800Y990600D02*
G01*
X6908800Y3226054D01*
X6700265Y3434587D01*
X5706363Y3434587D01*
X5612129Y3340100D01*
X4902200Y3340100D01*
X4445000Y3797300D01*
D11*
X4978400Y1574800D02*
G01*
X4914900Y1574800D01*
X4737100Y1752600D01*
X3936738Y1752600D01*
X3810000Y1879345D01*
X3810000Y1892300D01*
X6345681Y3680205D02*
G01*
X6315709Y3759200D01*
X5308600Y3759200D01*
X5156200Y3606800D01*
D10*
X3015234Y750570D02*
G01*
X3201670Y750570D01*
X3263900Y812800D01*
X3263900Y1092200D01*
X3149600Y1206500D01*
X1054100Y5270500D02*
G01*
X742764Y5270500D01*
X241300Y4769035D01*
X241300Y1892300D01*
X635000Y1739900D02*
G01*
X558800Y1739900D01*
X558800Y4457700D01*
X1435100Y5334000D01*
X1435100Y5422900D01*
X1511300Y5422900D01*
X2908300Y5651500D02*
G01*
X2908300Y3771900D01*
X2667000Y3530600D01*
X1231900Y3530600D01*
X812800Y4000500D02*
G01*
X1003300Y4191000D01*
X1892300Y4191000D01*
X2654300Y4953000D01*
X2654300Y5651500D01*
D12*
X6464274Y2425674D02*
G01*
X6464274Y2032025D01*
X6705600Y1790700D01*
X6705600Y1079474D01*
X6197625Y571500D01*
D14*
G01*
X6343693Y4616795D03*
D15*
G01*
X5689600Y584200D03*
G01*
X6197600Y584200D03*
D16*
G01*
X342900Y1092200D03*
G01*
X342900Y1346200D03*
D17*
G01*
X5140680Y685800D03*
D18*
G01*
X4790719Y685800D03*
D17*
G01*
X4437938Y685871D03*
D18*
G01*
X4087977Y685871D03*
D19*
G01*
X6274104Y5691403D03*
G01*
X3015234Y1004620D03*
G01*
X3015234Y750620D03*
G01*
X2761234Y1004620D03*
G01*
X2761259Y750646D03*
G01*
X2507234Y1004620D03*
G01*
X2507234Y750620D03*
G01*
X2253234Y1004620D03*
G01*
X2253259Y750646D03*
G01*
X1999234Y1004620D03*
G01*
X1999234Y750620D03*
G01*
X1745234Y1004620D03*
G01*
X1745234Y750620D03*
G01*
X1491234Y1004620D03*
G01*
X1491234Y750620D03*
G01*
X1237234Y1004620D03*
G01*
X1237259Y750646D03*
D20*
G01*
X5194325Y3111500D03*
G01*
X4940325Y3111500D03*
G01*
X4686325Y3111500D03*
G01*
X4432325Y3111500D03*
G01*
X4178325Y3111500D03*
G01*
X3924325Y3111500D03*
G01*
X3670325Y3111500D03*
G01*
X3416325Y3111500D03*
G01*
X3162325Y3111500D03*
G01*
X2908325Y3111500D03*
G01*
X2654325Y3111500D03*
G01*
X2400325Y3111500D03*
G01*
X2146325Y3111500D03*
G01*
X1892325Y3111500D03*
G01*
X1638325Y3111500D03*
G01*
X4940325Y5651500D03*
G01*
X4686325Y5651500D03*
G01*
X4432325Y5651500D03*
G01*
X4178325Y5651500D03*
G01*
X3924325Y5651500D03*
G01*
X3670325Y5651500D03*
G01*
X3416325Y5651500D03*
G01*
X3162325Y5651500D03*
G01*
X2908325Y5651500D03*
G01*
X2654325Y5651500D03*
G01*
X2400325Y5651500D03*
G01*
X2146325Y5651500D03*
G01*
X1892325Y5651500D03*
G01*
X1638325Y5651500D03*
G01*
X5194325Y5651500D03*
G01*
X1384325Y3111500D03*
G01*
X1130325Y3111500D03*
G01*
X5448325Y3111500D03*
D21*
G01*
X5448300Y5651500D03*
D20*
G01*
X1384325Y5651500D03*
G01*
X1130325Y5651500D03*
G01*
X876325Y3111500D03*
D21*
G01*
X876325Y5651500D03*
D22*
G01*
X5885179Y1826260D03*
D23*
G01*
X6184900Y1346200D03*
G01*
X5585459Y1346200D03*
D24*
G01*
X6214262Y2425674D03*
G01*
X6464274Y2425674D03*
G01*
X6714261Y2425674D03*
D19*
G01*
X5588050Y2413000D03*
G01*
X5588025Y2667000D03*
G01*
X5953785Y5690438D03*
D25*
G01*
X6008839Y3061622D03*
D26*
G01*
X6348856Y3061614D03*
G01*
X6178854Y2861614D03*
G01*
X6518859Y2861614D03*
G01*
X6688861Y3061614D03*
D27*
G01*
X6343700Y4864100D03*
D28*
G01*
X4728667Y1014755D03*
G01*
X3556000Y850900D03*
G01*
X6908800Y990600D03*
G01*
X4445000Y3797300D03*
G01*
X863600Y342900D03*
G01*
X622300Y1536700D03*
G01*
X241300Y1892300D03*
G01*
X1054100Y5270500D03*
G01*
X812800Y4000500D03*
G01*
X1219200Y2781300D03*
G01*
X1511300Y5422900D03*
G01*
X635000Y1739900D03*
G01*
X4445000Y2857500D03*
G01*
X2984500Y1676400D03*
G01*
X749300Y2235200D03*
G01*
X2514600Y2565400D03*
G01*
X952500Y2641600D03*
G01*
X2247900Y1917700D03*
G01*
X3911600Y4089400D03*
G01*
X6345631Y3680231D03*
G01*
X5156200Y3606800D03*
G01*
X2006600Y4559300D03*
D29*
G01*
X5105400Y4533900D03*
G01*
X3251200Y1397000D03*
G01*
X3238500Y2705100D03*
G01*
X3810000Y1892300D03*
G01*
X4978400Y1574800D03*
G01*
X4419600Y914400D03*
G01*
X6426200Y1600200D03*
G01*
X5854700Y863600D03*
G01*
X5461000Y863600D03*
G01*
X5308600Y1168400D03*
G01*
X3543300Y1739900D03*
G01*
X2616200Y1854200D03*
G01*
X2298700Y2146300D03*
G01*
X3149600Y1206500D03*
G01*
X2120900Y1231900D03*
G01*
X1079500Y2527300D03*
G01*
X444500Y2565400D03*
G01*
X685800Y4914900D03*
G01*
X1981200Y2870200D03*
G01*
X1231900Y3530600D03*
G01*
X393700Y1854200D03*
G01*
X4051300Y914400D03*
G01*
X3810000Y749300D03*
M02*
